<svg width="20" height="20" viewBox="0 0 20 20" fill="none" xmlns="http://www.w3.org/2000/svg">
<g clip-path="url(#clip0_238_1833)">
<path d="M17.8893 9.66667H11.7781V3.55556C11.7781 3.40821 11.7196 3.26691 11.6154 3.16272C11.5112 3.05853 11.3699 3 11.2226 3C11.0752 3 10.9339 3.05853 10.8297 3.16272C10.7256 3.26691 10.667 3.40821 10.667 3.55556V9.66667H4.55592C4.40858 9.66667 4.26727 9.7252 4.16308 9.82938C4.0589 9.93357 4.00036 10.0749 4.00036 10.2222C3.99762 10.2944 4.01039 10.3664 4.03781 10.4332C4.06522 10.5001 4.10665 10.5603 4.1593 10.6098C4.21194 10.6593 4.27459 10.6969 4.343 10.7201C4.41142 10.7433 4.48402 10.7516 4.55592 10.7444H10.667V16.8889C10.667 17.0362 10.7256 17.1775 10.8297 17.2817C10.9339 17.3859 11.0752 17.4444 11.2226 17.4444C11.3699 17.4444 11.5112 17.3859 11.6154 17.2817C11.7196 17.1775 11.7781 17.0362 11.7781 16.8889V10.7778H17.8893C18.0366 10.7778 18.1779 10.7192 18.2821 10.6151C18.3863 10.5109 18.4448 10.3696 18.4448 10.2222C18.4448 10.0749 18.3863 9.93357 18.2821 9.82938C18.1779 9.7252 18.0366 9.66667 17.8893 9.66667Z" fill="#0550B2"/>
</g>
<defs>
<clipPath id="clip0_238_1833">
<rect width="20" height="20" fill="white"/>
</clipPath>
</defs>
</svg>
