<svg width="13" height="16" viewBox="0 0 13 16" fill="none" xmlns="http://www.w3.org/2000/svg">
<rect x="0.4" y="0.4" width="11.2512" height="15.2" rx="1.6" fill="white" stroke="black" stroke-width="0.8"/>
<line x1="2.88086" y1="5.5" x2="9.81692" y2="5.5" stroke="black" stroke-linecap="round"/>
<line x1="4.46802" y1="3.46802" x2="7.43605" y2="3.46802" stroke="black" stroke-linecap="round"/>
<rect x="2.78086" y="8.33604" width="7.13606" height="4.75524" rx="0.6" fill="white" stroke="black" stroke-width="0.8"/>
<path fill-rule="evenodd" clip-rule="evenodd" d="M5.68262 9.81992C5.68262 9.74122 5.71496 9.66575 5.77253 9.6101C5.8301 9.55446 5.90817 9.52319 5.98959 9.52319H6.29655C6.37797 9.52319 6.45604 9.55446 6.51361 9.6101C6.57118 9.66575 6.60352 9.74122 6.60352 9.81992V10.4134H7.21745C7.29887 10.4134 7.37695 10.4446 7.43451 10.5003C7.49208 10.5559 7.52442 10.6314 7.52442 10.7101V11.0068C7.52442 11.0855 7.49208 11.161 7.43451 11.2166C7.37695 11.2723 7.29887 11.3035 7.21745 11.3035H6.60352V11.897C6.60352 11.9757 6.57118 12.0512 6.51361 12.1068C6.45604 12.1625 6.37797 12.1937 6.29655 12.1937H5.98959C5.90817 12.1937 5.8301 12.1625 5.77253 12.1068C5.71496 12.0512 5.68262 11.9757 5.68262 11.897V11.3035H5.06869C4.98727 11.3035 4.90919 11.2723 4.85163 11.2166C4.79406 11.161 4.76172 11.0855 4.76172 11.0068V10.7101C4.76172 10.6314 4.79406 10.5559 4.85163 10.5003C4.90919 10.4446 4.98727 10.4134 5.06869 10.4134H5.68262V9.81992Z" fill="black"/>
</svg>
